<svg width="118" height="30" viewBox="0 0 118 30" fill="none" xmlns="http://www.w3.org/2000/svg">
<path d="M0 0L7 0.46594L4.5 6.05722L0 0Z" fill="#6E7D60"/>
<path d="M3.85077 11.1823L8 0.931641" stroke="#6E7D60" stroke-width="1.33" stroke-linecap="round"/>
<path d="M9.86651 5.98781C9.86651 7.08272 10.8335 8.04891 12.1269 8.04891C13.4202 8.04891 14.3872 7.08272 14.3872 5.98781C14.3872 4.89291 13.4202 3.92672 12.1269 3.92672C10.8335 3.92672 9.86651 4.89291 9.86651 5.98781Z" stroke="#6E7D60" stroke-width="1.33"/>
<path d="M19.0746 11.0993C19.7986 11.6072 20.4593 12.205 20.9688 12.7112C21.5593 13.2977 21.4575 14.2466 20.8001 14.7571C20.2271 15.2021 19.4159 15.1656 18.8851 14.671L18.0461 13.8892C17.7598 13.6224 17.4212 13.4179 17.0517 13.2888L15.6106 12.7852C15.2233 12.6499 14.8449 13.0084 14.9592 13.4024L17.8074 23.2228C18.1025 24.2403 17.5108 25.3032 16.4905 25.5885C15.4892 25.8684 14.4485 25.2941 14.1515 24.2978L12.9436 20.2456C12.8998 20.0986 12.7311 20.0301 12.5973 20.105L12.0957 20.3854C11.4085 20.7697 10.8837 21.3898 10.6186 22.1312L10.1287 23.5006C9.81481 24.3782 8.86497 24.8524 7.97488 24.5759C7.04289 24.2864 6.53139 23.287 6.84168 22.3617L7.58187 20.1544C7.91679 19.1557 8.6307 18.3285 9.56974 17.8512L11.7567 16.7396C11.9713 16.6305 12.0779 16.384 12.0102 16.1529L11.1675 13.2733C11.0942 13.0229 10.8189 12.8924 10.5787 12.9942L8.26351 13.9748C7.46388 14.3136 6.55816 14.2975 5.77099 13.9308L4.3813 13.2832C3.79046 13.008 3.49294 12.3393 3.68401 11.7161C3.90132 11.0073 4.66421 10.6212 5.36406 10.8657L6.22689 11.1672C6.72987 11.343 7.27974 11.329 7.77313 11.1279L10.412 10.052C12.0138 9.39897 13.7703 9.15468 15.4417 9.6002C16.6848 9.93155 18.1107 10.423 19.0746 11.0993Z" stroke="#6E7D60" stroke-width="1.33"/>
<path d="M41.168 18.4396C41.7203 18.4396 42.168 18.8873 42.168 19.4396V21.2456C42.168 21.7979 41.7203 22.2456 41.168 22.2456H34.016C33.4637 22.2456 33.016 21.7979 33.016 21.2456V19.4396C33.016 18.8873 33.4637 18.4396 34.016 18.4396H41.168ZM30.332 24.6336C30.332 25.1859 30.7797 25.6336 31.332 25.6336H32.576C32.819 25.6336 33.016 25.4366 33.016 25.1936C33.016 24.9506 33.213 24.7536 33.456 24.7536H41.739C41.9759 24.7536 42.168 24.9457 42.168 25.1826C42.168 25.4195 42.3601 25.6116 42.597 25.6116H43.984C44.5363 25.6116 44.984 25.1639 44.984 24.6116V16.9536C44.984 16.4013 44.5363 15.9536 43.984 15.9536H31.332C30.7797 15.9536 30.332 16.4013 30.332 16.9536V24.6336ZM40.7119 8.23799C40.2948 8.55199 40.2483 9.14796 40.6355 9.49829C41.1653 9.97772 40.8628 10.8557 40.1489 10.8863C38.9166 10.9393 37.6906 10.991 36.4939 11.0388C35.6819 11.0713 35.1704 10.169 35.5959 9.47674C36.0994 8.6578 36.5965 7.81024 37.064 6.97165C37.3674 6.42739 37.0907 5.74649 36.4975 5.55595L35.5205 5.24218C35.0161 5.08017 34.4741 5.34 34.2648 5.8267C33.5776 7.42486 32.631 9.22843 31.6731 10.7723C31.4972 11.0559 31.1876 11.2269 30.854 11.2345C30.22 11.249 29.6121 11.2677 29.0368 11.2844C28.4704 11.3008 28.0274 11.7814 28.0604 12.3471L28.097 12.9737C28.1286 13.517 28.5877 13.9353 29.1315 13.9146C33.0591 13.7649 38.477 13.5462 43.686 13.2742C44.0041 13.2576 44.3125 13.3923 44.5083 13.6435C44.6759 13.8585 44.8325 14.0686 44.9771 14.2728C45.33 14.7712 46.0352 14.9158 46.5198 14.5441L47.1617 14.0518C47.5635 13.7436 47.6731 13.1821 47.3765 12.7716C46.2268 11.1805 44.3075 9.30436 42.5506 7.81036C42.1995 7.51186 41.689 7.50254 41.3209 7.77964L40.7119 8.23799Z" fill="#6E7D60"/>
<path d="M65.004 6.10861C65.004 5.76233 64.7233 5.48161 64.377 5.48161H61.803C61.4567 5.48161 61.176 5.76233 61.176 6.10861C61.176 6.4549 61.4567 6.73561 61.803 6.73561H64.377C64.7233 6.73561 65.004 6.4549 65.004 6.10861ZM55.1281 8.27093C55.4421 7.88272 55.4194 7.32294 55.0283 7.01238C54.505 6.59672 53.8458 6.15907 53.2199 5.78232C52.8106 5.53598 52.2866 5.63534 51.9795 6.00119L51.7655 6.25608C51.37 6.72712 51.4899 7.44023 51.9955 7.79038C52.4241 8.08721 52.8494 8.40688 53.2213 8.71791C53.7021 9.12002 54.4569 9.10059 54.8511 8.61328L55.1281 8.27093ZM54.7055 13.9218C55.0191 13.5142 54.9708 12.9357 54.5535 12.6353C54.006 12.2411 53.3346 11.835 52.6923 11.4934C52.2805 11.2744 51.776 11.3961 51.4884 11.7634L51.2809 12.0284C50.8988 12.5162 51.0478 13.2312 51.5716 13.5622C52.0095 13.8388 52.4476 14.1397 52.8311 14.4325C53.3215 14.8069 54.0599 14.7611 54.4362 14.272L54.7055 13.9218ZM52.382 24.8387C52.9051 25.1326 53.5679 24.903 53.7866 24.3443C54.4385 22.6794 55.0832 20.8394 55.6318 19.0736C55.7644 18.647 55.5923 18.1858 55.2157 17.9454L54.8825 17.7328C54.3283 17.379 53.5889 17.6472 53.3751 18.269C52.7565 20.0681 52.0393 21.8665 51.4338 23.2514C51.2249 23.7292 51.4065 24.2905 51.8611 24.546L52.382 24.8387ZM63.618 14.3476C63.618 14.6149 63.4013 14.8316 63.134 14.8316H63.002C62.7347 14.8316 62.518 14.6149 62.518 14.3476C62.518 14.0803 62.7347 13.8636 63.002 13.8636H63.134C63.4013 13.8636 63.618 14.0803 63.618 14.3476ZM57.37 15.8445C57.37 16.0374 57.5263 16.1956 57.7192 16.1956H58.195C58.6506 16.1956 59.02 15.8262 59.02 15.3706V12.161C59.02 11.9662 59.1679 11.8033 59.3618 11.7845L59.4525 11.7758C59.5942 11.762 59.7266 11.8747 59.7472 12.0156C59.773 12.1925 59.9505 12.2862 60.1182 12.2241L60.5185 12.0758C60.7874 11.9762 60.9533 11.7037 60.8929 11.4233C60.7907 10.9487 60.6248 10.3931 60.4256 9.88351C60.3116 9.59155 59.9829 9.45666 59.6879 9.56283L59.3518 9.68385C59.2177 9.73213 59.1462 9.87327 59.1928 10.008C59.249 10.1706 59.13 10.3477 58.958 10.3517C58.7315 10.357 58.6027 10.0886 58.749 9.91557C59.179 9.40695 59.611 8.86132 60.0236 8.32719C60.1407 8.17571 60.384 8.25813 60.384 8.44955C60.384 8.56004 60.4736 8.64961 60.5841 8.64961H65.5663C65.6081 8.64961 65.642 8.6157 65.642 8.57386C65.642 8.50889 65.7182 8.47434 65.7664 8.5179C66.0779 8.79951 66.3768 9.10949 66.6313 9.40564C66.8309 9.63782 66.8155 9.98076 66.6168 10.2136C66.6062 10.226 66.5957 10.2383 66.5852 10.2506C66.4618 10.395 66.2821 10.4779 66.0922 10.4819C65.6949 10.4904 65.3888 10.835 65.4273 11.2305L65.4374 11.3349C65.4779 11.7519 65.8407 12.0624 66.2589 12.0381L67.0303 11.9932C67.232 11.9815 67.402 12.1419 67.402 12.344C67.402 12.5699 67.1918 12.7371 66.9717 12.6863L66.4404 12.5637C66.1828 12.5043 65.9271 12.6673 65.8645 12.9241C65.8414 13.0187 65.8174 13.1136 65.7924 13.2085C65.6821 13.6261 65.202 13.5363 65.202 13.1044C65.202 12.8797 65.0199 12.6976 64.7952 12.6976H62C61.4477 12.6976 61 13.1453 61 13.6976V14.9976C61 15.5499 61.4477 15.9976 62 15.9976H64.916C65.074 15.9976 65.202 15.8696 65.202 15.7116C65.202 15.5047 65.4144 15.3678 65.5986 15.4622C65.7678 15.5489 65.9383 15.6427 66.0876 15.7324C66.2507 15.8305 66.4467 15.8273 66.5291 15.6557C66.6878 15.3252 67.402 15.3895 67.402 15.7561V15.8716C67.402 16.0506 67.5471 16.1956 67.726 16.1956H68.238C68.6997 16.1956 69.074 15.8213 69.074 15.3596V12.328C69.074 12.0772 69.267 11.8688 69.5171 11.8495L69.7178 11.8341C69.8407 11.8246 69.9562 11.9234 69.9832 12.0437C70.019 12.2032 70.1899 12.2815 70.3399 12.2165L70.8548 11.9934C71.1499 11.8655 71.3153 11.5469 71.2213 11.2393C71.075 10.7605 70.8625 10.2157 70.6266 9.71816C70.478 9.40468 70.1085 9.27507 69.7868 9.40488L69.3958 9.56264C69.2343 9.62782 69.1592 9.81015 69.2332 9.96786C69.3244 10.1622 69.1865 10.392 68.9718 10.3959L68.9493 10.3963C68.6736 10.4013 68.5246 10.0717 68.7071 9.86503C69.1428 9.37163 69.5821 8.84886 70.0006 8.3388C70.3003 7.97344 70.1943 7.42699 69.7821 7.19589C69.4149 6.99008 68.9503 7.12019 68.7185 7.47146C68.5668 7.70126 68.4007 7.93938 68.225 8.18266C68.1088 8.34362 67.8818 8.35803 67.7446 8.21452C67.6342 8.09906 67.6058 7.91281 67.6972 7.78183C67.9631 7.40084 68.2414 6.97287 68.5242 6.54129C68.7773 6.15491 68.6359 5.63104 68.2203 5.42937C67.8335 5.24163 67.3674 5.41245 67.1787 5.79884C66.9992 6.16629 66.7946 6.56502 66.5921 6.94026C66.544 7.02945 66.4275 7.05383 66.3472 6.99204C66.274 6.93575 66.1689 6.95036 66.1138 7.02447L65.8096 7.43401C65.7562 7.5059 65.642 7.46813 65.642 7.37858C65.642 7.32723 65.6004 7.28561 65.549 7.28561H60.5217C60.4457 7.28561 60.384 7.34726 60.384 7.42331C60.384 7.52882 60.2702 7.59513 60.1784 7.54311L59.5539 7.18923C59.2843 7.03648 58.9415 7.13339 58.7767 7.39573C58.648 7.60053 58.5071 7.81364 58.3594 8.03506C58.2494 8.20004 58.0081 8.22449 57.86 8.09257C57.7542 7.99827 57.7337 7.83875 57.8109 7.71984C58.0622 7.33247 58.333 6.90563 58.6056 6.46991C58.8416 6.09263 58.7015 5.59482 58.3046 5.39343C57.908 5.19217 57.4241 5.37286 57.2367 5.77619C57.0675 6.14034 56.8762 6.52376 56.6816 6.87953C56.6255 6.98196 56.4958 7.01528 56.3973 6.95259C56.3023 6.89219 56.1778 6.92116 56.1173 7.01602L55.8104 7.49711C55.586 7.84884 55.6732 8.31303 55.9921 8.58202C56.2367 8.78835 56.4795 9.0081 56.7051 9.2272C56.9702 9.48474 56.9841 9.90333 56.7503 10.1896C56.6102 10.3613 56.407 10.4578 56.1855 10.465L56.0351 10.47C55.5805 10.4849 55.2349 10.8839 55.2852 11.336C55.3314 11.7525 55.6984 12.0588 56.1163 12.0288C56.3936 12.009 56.6795 11.9876 56.9708 11.9631C57.185 11.945 57.37 12.1134 57.37 12.3284C57.37 12.5626 57.1525 12.7362 56.9242 12.6843L56.5719 12.6042C56.2136 12.5228 55.8606 12.7534 55.7717 13.11C55.6484 13.604 55.4939 14.0966 55.2974 14.5483C55.1235 14.9481 55.2828 15.4477 55.6728 15.6425C55.7807 15.6964 55.8863 15.7508 55.9838 15.8029C56.1551 15.8942 56.35 15.8781 56.4385 15.7053C56.6237 15.3439 57.37 15.4384 57.37 15.8445ZM69.8698 12.6327C69.4793 12.7498 69.2763 13.1787 69.4178 13.5611C69.582 14.0045 69.7364 14.468 69.8555 14.8927C69.9718 15.3074 70.4103 15.5668 70.8189 15.4306C71.1639 15.3157 71.3641 14.9564 71.257 14.6089C71.1048 14.1147 70.9014 13.551 70.6936 13.0257C70.5646 12.6995 70.2058 12.5319 69.8698 12.6327ZM61.022 11.5096C61.022 11.8377 61.2879 12.1036 61.616 12.1036H64.608C64.9361 12.1036 65.202 11.8377 65.202 11.5096C65.202 11.1816 64.9361 10.9156 64.608 10.9156H61.616C61.2879 10.9156 61.022 11.1816 61.022 11.5096ZM65.202 9.81561C65.202 9.48756 64.9361 9.22161 64.608 9.22161H61.616C61.2879 9.22161 61.022 9.48756 61.022 9.81561C61.022 10.1437 61.2879 10.4096 61.616 10.4096H64.608C64.9361 10.4096 65.202 10.1437 65.202 9.81561ZM60.3525 15.0184C60.6826 14.9248 60.8882 14.5962 60.8124 14.2617C60.73 13.8986 60.6265 13.4941 60.5157 13.1114C60.422 12.7874 60.0893 12.6008 59.7605 12.6758C59.394 12.7594 59.1731 13.1333 59.2636 13.4982C59.3444 13.824 59.4199 14.1593 59.4825 14.4715C59.5623 14.8691 59.9623 15.1289 60.3525 15.0184ZM59.8342 20.9036C59.6113 20.9036 59.4483 20.6932 59.504 20.4774C59.5428 20.3268 59.6787 20.2216 59.8342 20.2216H68.316C68.8683 20.2216 69.316 19.7739 69.316 19.2216V17.5696C69.316 17.0173 68.8683 16.5696 68.316 16.5696H57.579C57.172 16.5696 56.842 16.8996 56.842 17.3066C56.842 17.7136 57.172 18.0436 57.579 18.0436H66.555C66.7433 18.0436 66.896 18.1963 66.896 18.3846C66.896 18.5729 66.7433 18.7256 66.555 18.7256H58.327C57.848 18.7256 57.4376 19.0656 57.3345 19.5334C57.1776 20.2458 56.991 20.9869 56.7964 21.6627C56.6204 22.2738 57.0177 22.9173 57.6481 22.9998L58.4298 23.1021C58.632 23.1285 58.8223 23.0153 58.8821 22.8203C58.9373 22.6405 59.1048 22.5096 59.2929 22.5096H66.3145C66.9716 22.5096 67.5374 23.2671 67.006 23.6536C66.786 23.8076 66.522 23.8296 66.082 23.8296C65.7327 23.8296 65.0194 23.8207 64.2073 23.7804C63.6327 23.7519 63.2199 24.481 63.3658 25.0375C63.4534 25.372 63.7258 25.5983 64.0714 25.6078C65.2145 25.6392 66.2751 25.6523 66.874 25.6336C67.754 25.5896 68.37 25.4796 68.92 25.0616C69.514 24.5776 69.91 23.6096 70.262 21.8496C70.4041 21.3523 69.9548 20.9036 69.4376 20.9036H59.8342Z" fill="#6E7D60"/>
<path d="M85.574 20.3416C85.574 19.7893 86.0217 19.3416 86.574 19.3416H91.592C92.1443 19.3416 92.592 18.8939 92.592 18.3416V18.0096C92.592 17.4573 92.1443 17.0096 91.592 17.0096H86.574C86.0217 17.0096 85.574 16.5619 85.574 16.0096V15.3476C85.574 14.7953 86.0217 14.3476 86.574 14.3476H93.066C93.6183 14.3476 94.066 13.8999 94.066 13.3476V12.9056C94.066 12.3533 93.6183 11.9056 93.066 11.9056H86.574C86.0217 11.9056 85.574 11.4579 85.574 10.9056V10.7716C85.574 10.2193 86.0217 9.77161 86.574 9.77161H91.35C91.9023 9.77161 92.35 9.3239 92.35 8.77161V8.37361C92.35 7.82133 91.9023 7.37361 91.35 7.37361H86.574C86.0217 7.37361 85.574 6.9259 85.574 6.37361V6.12961C85.574 5.57733 85.1263 5.12961 84.574 5.12961H83.89C83.3377 5.12961 82.89 5.57733 82.89 6.12961V6.37361C82.89 6.9259 82.4423 7.37361 81.89 7.37361H77.51C76.9577 7.37361 76.51 7.82133 76.51 8.37361V8.77161C76.51 9.3239 76.9577 9.77161 77.51 9.77161H81.89C82.4423 9.77161 82.89 10.2193 82.89 10.7716V10.9056C82.89 11.4579 82.4423 11.9056 81.89 11.9056H75.574C75.0217 11.9056 74.574 12.3533 74.574 12.9056V13.3476C74.574 13.8999 75.0217 14.3476 75.574 14.3476H81.89C82.4423 14.3476 82.89 14.7953 82.89 15.3476V20.1313C82.89 20.8776 82.1026 21.3467 81.5343 20.8629C80.9017 20.3243 80.3461 19.6462 79.8904 18.7942C79.7771 18.5822 79.7576 18.3342 79.817 18.1013C79.9453 17.5984 80.0566 17.0918 80.1541 16.5905C80.2631 16.0299 79.863 15.5035 79.2955 15.439L78.6393 15.3643C78.0852 15.3012 77.5891 15.7037 77.5075 16.2553C77.1589 18.6115 76.3717 21.1672 74.8609 22.9691C74.4108 23.5059 74.4538 24.399 74.9787 24.8631C75.0211 24.9006 75.0631 24.9382 75.1045 24.9759C75.502 25.337 76.12 25.3932 76.4935 25.0072C77.0774 24.4038 77.5754 23.7027 78.0077 22.9343C78.3941 22.2475 79.4057 22.135 79.9756 22.6792C82.2206 24.8234 85.2525 25.3696 88.94 25.3696H92.897C93.3823 25.3696 93.7929 25.0365 93.9332 24.572C94.1629 23.8112 93.606 22.8542 92.8114 22.8604C91.395 22.8715 89.745 22.8761 89.094 22.8616C88.165 22.8616 87.2609 22.8241 86.4008 22.7207C85.9203 22.663 85.574 22.2455 85.574 21.7615V20.3416Z" fill="#6E7D60"/>
<path d="M108.894 20.3416C108.894 19.7893 109.342 19.3416 109.894 19.3416H114.912C115.464 19.3416 115.912 18.8939 115.912 18.3416V18.0096C115.912 17.4573 115.464 17.0096 114.912 17.0096H109.894C109.342 17.0096 108.894 16.5619 108.894 16.0096V15.3476C108.894 14.7953 109.342 14.3476 109.894 14.3476H116.386C116.938 14.3476 117.386 13.8999 117.386 13.3476V12.9056C117.386 12.3533 116.938 11.9056 116.386 11.9056H109.894C109.342 11.9056 108.894 11.4579 108.894 10.9056V10.7716C108.894 10.2193 109.342 9.77161 109.894 9.77161H114.67C115.222 9.77161 115.67 9.3239 115.67 8.77161V8.37361C115.67 7.82133 115.222 7.37361 114.67 7.37361H109.894C109.342 7.37361 108.894 6.9259 108.894 6.37361V6.12961C108.894 5.57733 108.446 5.12961 107.894 5.12961H107.21C106.658 5.12961 106.21 5.57733 106.21 6.12961V6.37361C106.21 6.9259 105.762 7.37361 105.21 7.37361H100.83C100.278 7.37361 99.83 7.82133 99.83 8.37361V8.77161C99.83 9.3239 100.278 9.77161 100.83 9.77161H105.21C105.762 9.77161 106.21 10.2193 106.21 10.7716V10.9056C106.21 11.4579 105.762 11.9056 105.21 11.9056H98.894C98.3417 11.9056 97.894 12.3533 97.894 12.9056V13.3476C97.894 13.8999 98.3417 14.3476 98.894 14.3476H105.21C105.762 14.3476 106.21 14.7953 106.21 15.3476V20.1313C106.21 20.8776 105.423 21.3467 104.854 20.8629C104.222 20.3243 103.666 19.6462 103.21 18.7942C103.097 18.5822 103.078 18.3342 103.137 18.1013C103.265 17.5984 103.377 17.0918 103.474 16.5905C103.583 16.0299 103.183 15.5035 102.615 15.439L101.959 15.3643C101.405 15.3012 100.909 15.7037 100.828 16.2553C100.479 18.6115 99.6917 21.1672 98.1809 22.9691C97.7308 23.5059 97.7738 24.399 98.2987 24.8631C98.3411 24.9006 98.3831 24.9382 98.4245 24.9759C98.822 25.337 99.44 25.3932 99.8135 25.0072C100.397 24.4038 100.895 23.7027 101.328 22.9343C101.714 22.2475 102.726 22.135 103.296 22.6792C105.541 24.8234 108.573 25.3696 112.26 25.3696H116.217C116.702 25.3696 117.113 25.0365 117.253 24.572C117.483 23.8112 116.926 22.8542 116.131 22.8604C114.715 22.8715 113.065 22.8761 112.414 22.8616C111.485 22.8616 110.581 22.8241 109.721 22.7207C109.24 22.663 108.894 22.2455 108.894 21.7615V20.3416Z" fill="#6E7D60"/>
</svg>
